Patient4_TMGait_0pt6_01_left_03_GRF.mot
version=1
nRows=52
nColumns=19
inDegrees=no
endheader
time	F1x	F1y	F1z	M1x	M1y	M1z	F2x	F2y	F2z	M2x	M2y	M2z	EC1x	EC1y	EC1z	EC2x	EC2y	EC2z
3.57	0.38432	0.97613	-0.47188	0.095789	0.19212	0.23054	-24.0561	724.3829	-52.8058	300.1223	54.7342	634.1413	-0.0592	0.0182	-0.0073	-0.0462	0.0165	0.9585
3.5821	0.099639	1.1249	-0.31831	-0.11169	0.10792	0.57689	-23.4704	720.3014	-51.909	298.4785	53.7319	627.718	-0.0592	0.0182	-0.0073	-0.0462	0.0165	0.9585
3.5941	-0.15362	1.2916	-0.15879	-0.29818	-0.018628	0.90062	-22.3278	716.7804	-50.8474	297.1799	52.2564	621.1632	-0.0592	0.0182	-0.0073	-0.0462	0.0165	0.9585
3.6062	-0.36369	1.4721	-0.02227	-0.45524	-0.1476	1.1987	-20.5893	714.6525	-49.6918	296.5703	50.36	615.2434	-0.0592	0.0182	-0.0073	-0.0462	0.0165	0.9585
3.6183	-0.52621	1.6556	0.083506	-0.581	-0.26191	1.4631	-18.2658	714.5857	-48.5302	296.9171	48.1348	610.5701	-0.0592	0.0182	-0.0073	-0.0462	0.0165	0.9585
3.6304	-0.65458	1.8342	0.15211	-0.67786	-0.34983	1.6933	-15.4145	716.9179	-47.4683	298.344	45.7021	607.4829	-0.0592	0.0182	-0.0073	-0.0462	0.0165	0.9585
3.6424	-0.75985	1.9943	0.19105	-0.74582	-0.41417	1.8814	-12.1297	721.5549	-46.6026	300.791	43.189	605.9577	-0.0592	0.0182	-0.0073	-0.0462	0.0165	0.9585
3.6545	-0.85451	2.0985	0.2105	-0.77763	-0.46498	2.0048	-8.5319	727.9936	-46.0155	304.0236	40.7229	605.6407	-0.0592	0.0182	-0.0073	-0.0462	0.0165	0.9585
3.6666	-0.95372	2.1002	0.22555	-0.76299	-0.52113	2.0275	-4.7687	735.4404	-45.7429	307.687	38.4053	605.9571	-0.0592	0.0182	-0.0073	-0.0462	0.0165	0.9585
3.6786	-1.0721	1.9353	0.2464	-0.68444	-0.59717	1.8959	-1.0034	742.9817	-45.7744	311.3787	36.3042	606.2585	-0.0592	0.0182	-0.0073	-0.0462	0.0165	0.9585
3.6907	-1.2119	1.5263	0.27929	-0.51808	-0.69952	1.5352	2.6006	749.7725	-46.0684	314.7222	34.4636	605.9695	-0.0592	0.0182	-0.0073	-0.0462	0.0165	0.9585
3.7028	-1.3675	0.78697	0.32699	-0.23676	-0.82555	0.85575	5.8886	755.1626	-46.555	317.4242	32.9024	604.6793	-0.0592	0.0182	-0.0073	-0.0462	0.0165	0.9585
3.7149	-1.5136	-0.35605	0.38236	0.18294	-0.95701	-0.21144	8.7583	758.7659	-47.1717	319.3038	31.6249	602.1796	-0.0592	0.0182	-0.0073	-0.0462	0.0165	0.9585
3.7269	-1.5931	-1.9354	0.42864	0.75111	-1.0556	-1.701	11.182	760.4724	-47.8512	320.2967	30.5955	598.4706	-0.0592	0.0182	-0.0073	-0.0462	0.0165	0.9585
3.739	-1.5312	-3.9119	0.43401	1.4541	-1.0583	-3.5794	13.2007	760.352	-48.5549	320.4161	29.7697	593.6712	-0.0592	0.0182	-0.0073	-0.0462	0.0165	0.9585
3.7511	-1.2049	-6.1203	0.36025	2.2331	-0.88171	-5.6892	14.899	758.5595	-49.2624	319.7112	29.0963	587.949	-0.0592	0.0182	-0.0073	-0.0462	0.0165	0.9585
3.7631	-0.47769	-8.1799	0.15558	2.9509	-0.42338	-7.6741	16.4098	755.2629	-49.9724	318.2387	28.5204	581.4557	-0.0592	0.0182	-0.0073	-0.0462	0.0165	0.9585
3.7752	0.79873	-9.4336	-0.23628	3.3666	0.42472	-8.9277	17.8867	750.6	-50.7071	316.0461	27.9992	574.2897	-0.0592	0.0182	-0.0073	-0.0462	0.0165	0.9585
3.7873	2.7484	-8.8549	-0.86995	3.1073	1.7569	-8.4753	19.4741	744.687	-51.4835	313.1751	27.484	566.5152	-0.0592	0.0182	-0.0073	-0.0462	0.0165	0.9585
3.7994	5.4478	-5.0403	-1.7775	1.6649	3.6273	-4.9753	21.2998	737.5788	-52.3087	309.654	26.93	558.1288	-0.0592	0.0182	-0.0073	-0.0462	0.0165	0.9585
3.8114	8.8283	3.7822	-2.9611	-1.5986	6.0071	3.2803	23.4396	729.2816	-53.147	305.5032	26.2881	549.0885	-0.0592	0.0182	-0.0073	-0.0462	0.0165	0.9585
3.8235	12.6042	19.5889	-4.3412	-7.3917	8.7041	18.1996	25.909	719.6909	-53.9142	300.7083	25.5104	539.2806	-0.0592	0.0182	-0.0073	-0.0462	0.0165	0.9585
3.8356	16.1194	44.2223	-5.7176	-16.37	11.278	41.5703	28.6427	708.5126	-54.4641	295.1878	24.5315	528.487	-0.0592	0.0182	-0.0073	-0.0462	0.0165	0.9585
3.8476	18.2283	78.8478	-6.7163	-28.9395	12.9462	74.5461	31.5105	695.1838	-54.6009	288.7585	23.2736	516.3104	-0.0592	0.0182	-0.0073	-0.0462	0.0165	0.9585
3.8597	17.4225	123.4672	-6.8768	-45.0812	12.725	117.2083	34.3235	678.8839	-54.1206	281.1335	21.6753	502.1798	-0.0592	0.0182	-0.0073	-0.0462	0.0165	0.9585
3.8718	12.9578	177.1152	-5.7589	-64.4112	9.9253	168.7076	36.8815	658.6287	-52.8285	271.9588	19.6854	485.4048	-0.0592	0.0182	-0.0073	-0.0462	0.0165	0.9585
3.8839	5.3762	237.7127	-2.9949	-86.1224	4.3934	227.0575	38.9901	633.4281	-50.6069	260.8693	17.3049	465.2971	-0.0592	0.0182	-0.0073	-0.0462	0.0165	0.9585
3.8959	-4.1789	300.8414	1.789	-108.5718	-3.7973	287.878	40.4891	602.3773	-47.4385	247.5251	14.591	441.2124	-0.0592	0.0182	-0.0073	-0.0462	0.0165	0.9585
3.908	-14.2321	360.6078	8.6583	-129.6531	-14.1277	345.2418	41.2267	564.8267	-43.4277	231.6788	11.6798	412.6751	-0.0592	0.0182	-0.0073	-0.0462	0.0165	0.9585
3.9201	-23.312	413.1043	16.4882	-148.0419	-24.9461	395.1208	41.0588	520.7142	-38.7647	213.3008	8.7516	379.6383	-0.0592	0.0182	-0.0073	-0.0462	0.0165	0.9585
3.9321	-30.6564	457.6712	24.2573	-163.5835	-34.9743	436.7373	39.8799	470.7255	-33.7371	192.6489	6.0289	342.6003	-0.0592	0.0182	-0.0073	-0.0462	0.0165	0.9585
3.9442	-35.9679	495.8675	30.8672	-176.9255	-43.0607	471.5306	37.6401	416.2422	-28.6574	170.2546	3.7199	302.5528	-0.0592	0.0182	-0.0073	-0.0462	0.0165	0.9585
3.9563	-39.3081	529.94	35.7961	-188.9245	-48.7352	501.6924	34.3504	359.1353	-23.7796	146.8493	1.9662	260.8249	-0.0592	0.0182	-0.0073	-0.0462	0.0165	0.9585
3.9684	-40.8692	561.7575	38.8077	-200.2721	-51.8652	529.0436	30.0721	301.6034	-19.2761	123.3014	0.83542	218.9793	-0.0592	0.0182	-0.0073	-0.0462	0.0165	0.9585
3.9804	-40.9585	592.4386	40.2652	-211.3401	-52.9245	554.7415	24.9686	245.9816	-15.2547	100.5459	0.31988	178.6696	-0.0592	0.0182	-0.0073	-0.0462	0.0165	0.9585
3.9925	-39.9039	622.3652	40.7717	-222.2073	-52.6219	579.2392	19.3421	194.5239	-11.8033	79.4886	0.35643	141.4907	-0.0592	0.0182	-0.0073	-0.0462	0.0165	0.9585
4.0046	-38.0898	651.3403	41.0772	-232.7297	-51.8091	602.4752	13.6498	149.0424	-8.9449	60.8668	0.78152	108.6934	-0.0592	0.0182	-0.0073	-0.0462	0.0165	0.9585
4.0166	-35.8279	678.8268	41.7575	-242.6573	-51.1449	624.0342	8.3893	110.6114	-6.6599	45.1232	1.391	80.9961	-0.0592	0.0182	-0.0073	-0.0462	0.0165	0.9585
4.0287	-33.4244	704.1685	43.0787	-251.7258	-50.9852	643.3899	3.9629	79.4335	-4.8862	32.3502	1.9905	58.4835	-0.0592	0.0182	-0.0073	-0.0462	0.0165	0.9585
4.0408	-31.0302	726.7874	45.0208	-259.7311	-51.38	660.0553	0.54044	55.036	-3.5337	22.362	2.4547	40.8	-0.0592	0.0182	-0.0073	-0.0462	0.0165	0.9585
4.0529	-28.7437	746.3645	47.2177	-266.5838	-52.0343	673.7914	-1.871	36.5512	-2.5052	14.8072	2.7147	27.3307	-0.0592	0.0182	-0.0073	-0.0462	0.0165	0.9585
4.0649	-26.5376	762.6553	49.3363	-272.2289	-52.6504	684.4103	-3.3562	22.9561	-1.7259	9.2679	2.7545	17.3664	-0.0592	0.0182	-0.0073	-0.0462	0.0165	0.9585
4.077	-24.4014	775.3648	51.062	-276.5856	-52.9338	691.7058	-4.0122	13.2647	-1.1288	5.3395	2.572	10.2259	-0.0592	0.0182	-0.0073	-0.0462	0.0165	0.9585
4.0891	-22.2519	784.1174	52.3948	-279.528	-52.8571	695.3829	-3.9629	6.6425	-0.68109	2.675	2.2062	5.3264	-0.0592	0.0182	-0.0073	-0.0462	0.0165	0.9585
4.1011	-20.0653	788.6875	53.3704	-280.9781	-52.4325	695.3055	-3.4089	2.4356	-0.35705	0.99766	1.7232	2.2008	-0.0592	0.0182	-0.0073	-0.0462	0.0165	0.9585
4.1132	-17.7868	789.1502	54.1231	-280.9655	-51.7706	691.5948	-2.6403	0.10299	-0.14059	0.075995	1.2318	0.46442	-0.0592	0.0182	-0.0073	-0.0462	0.0165	0.9585
4.1253	-15.4308	786.02	54.6538	-279.6733	-50.8794	684.7459	-1.8635	-0.87983	-0.007976	-0.30917	0.80335	-0.25162	-0.0592	0.0182	-0.0073	-0.0462	0.0165	0.9585
4.1374	-12.9859	780.2264	54.9731	-277.4293	-49.7802	675.5889	-1.1932	-0.9961	0.060979	-0.35204	0.47107	-0.30573	-0.0592	0.0182	-0.0073	-0.0462	0.0165	0.9585
4.1494	-10.4744	772.9526	55.059	-274.6521	-48.4587	665.1681	-0.67303	-0.62178	0.083011	-0.20298	0.2378	0.019014	-0.0592	0.0182	-0.0073	-0.0462	0.0165	0.9585
4.1615	-7.8681	765.3586	54.9716	-271.746	-46.9628	654.4831	-0.30009	-0.036315	0.079148	0.028613	0.085864	0.51649	-0.0592	0.0182	-0.0073	-0.0462	0.0165	0.9585
4.1736	-5.1793	758.352	54.8345	-269.0226	-45.3966	644.3111	-0.059458	0.58204	0.063756	0.27271	-4.5006e-05	1.0502	-0.0592	0.0182	-0.0073	-0.0462	0.0165	0.9585
4.1856	-2.3941	752.5113	54.74	-266.6807	-43.8401	635.1328	0.082791	1.1402	0.046192	0.49274	-0.041205	1.5308	-0.0592	0.0182	-0.0073	-0.0462	0.0165	0.9585
